<svg xmlns="http://www.w3.org/2000/svg" viewBox="0 0 48 48" xmlns:xlink="http://www.w3.org/1999/xlink" xml:space="preserve" width="100%" height="100%"><path xmlns="http://www.w3.org/2000/svg" d="M34 34h10v4h-6v6h-4zM14 14H4v-4h6V4h4zm22.728 17.072L33.9 28.24l2.828-2.828A10 10 0 1 0 22.586 11.27l-2.828 2.83-2.83-2.828 2.832-2.828a14 14 0 0 1 19.8 19.8l-2.83 2.828zm-5.656 5.656-2.83 2.828a14 14 0 0 1-19.8-19.8l2.83-2.828L14.1 19.76l-2.828 2.828A10 10 0 1 0 25.414 36.73l2.828-2.828 2.83 2.828zm-1.416-21.214 2.83 2.83-14.142 14.14-2.83-2.828 14.142-14.14z" style="fill: rgb(255, 255, 255);"></path></svg>