<svg xmlns="http://www.w3.org/2000/svg" viewBox="0 0 48 48" xmlns:xlink="http://www.w3.org/1999/xlink" xml:space="preserve" width="100%" height="100%"><path xmlns="http://www.w3.org/2000/svg" d="m35.314 29.656-2.828-2.828L35.314 24A8 8 0 1 0 24 12.686l-2.828 2.828-2.828-2.828 2.828-2.828a12 12 0 0 1 16.97 16.97zm-5.658 5.658-2.828 2.828a12 12 0 1 1-16.97-16.97l2.828-2.828 2.828 2.828L12.686 24A8 8 0 1 0 24 35.314l2.828-2.828zm0-19.8 2.83 2.83-14.142 14.14-2.83-2.828 14.142-14.14zM11.55 4.586l3.864-1.036 2.07 7.73-3.862 1.036zm18.966 32.136 3.862-1.036 2.072 7.728-3.864 1.036zM4.586 11.55l7.728 2.072-1.036 3.862-7.728-2.07zm32.136 18.966 7.728 2.07-1.036 3.864-7.728-2.072z" style="fill: rgb(255, 255, 255);"></path></svg>